<?xml version="1.0" encoding="iso-8859-1"?>
<!-- Generator: Adobe Illustrator 20.1.0, SVG Export Plug-In . SVG Version: 6.00 Build 0)  -->
<svg version="1.1" xmlns="http://www.w3.org/2000/svg" xmlns:xlink="http://www.w3.org/1999/xlink" x="0px" y="0px"
	 viewBox="0 0 388 234" style="enable-background:new 0 0 388 234;" xml:space="preserve">
<g id="&#x421;&#x43B;&#x43E;&#x439;_1" style="display:none;">
</g>
<g id="&#x421;&#x43B;&#x43E;&#x439;_2">
	<g>
		<ellipse style="opacity:0.7;fill:#999999;" cx="124.331" cy="186.5" rx="51.669" ry="19.5"/>
		<path style="fill:#FF6600;" d="M62.328,129.523c0-80.586,125.5-80.794,125.5,0C187.828,210.82,62.328,210.017,62.328,129.523z"/>
		
			<ellipse transform="matrix(0.1225 -0.9925 0.9925 0.1225 -11.5484 231.3899)" style="fill:#FFFFFF;" cx="125.078" cy="122.226" rx="19.167" ry="19.167"/>
		
			<ellipse transform="matrix(0.1225 -0.9925 0.9925 0.1225 22.4875 252.5781)" style="fill:#FFFFFF;" cx="154.078" cy="113.572" rx="19.167" ry="19.167"/>
		<g>
			<path style="fill:#FF6600;" d="M94.795,155.844c3.234-12.767-16.569-9.076-31.533-12.196c-7.147-1.49-11.866-4.342-16.274-7.403
				c-9.677-6.72-16.631-21.305-19.002-11.946c-0.655,2.584-0.537,5.713,0.131,9.033c1.207,6.002,4.21,12.63,7.696,17.795
				C50.497,172.875,89.811,175.519,94.795,155.844z"/>
			<g>
				<path style="fill:#FF6600;" d="M32.688,146.058c0,0-0.137-0.099-0.377-0.273c-0.12-0.087-0.265-0.192-0.432-0.313
					c-0.162-0.107-0.368-0.294-0.58-0.473c-0.207-0.188-0.458-0.371-0.665-0.602c-0.213-0.228-0.444-0.459-0.665-0.712
					c-0.43-0.523-0.851-1.103-1.193-1.728c-0.339-0.625-0.625-1.271-0.811-1.9c-0.196-0.624-0.315-1.22-0.373-1.732
					c-0.128-1.025-0.038-1.702-0.038-1.702s0.038,0.683,0.344,1.637c0.146,0.477,0.364,1.016,0.653,1.557
					c0.279,0.546,0.651,1.084,1.055,1.581c0.407,0.497,0.873,0.935,1.326,1.315c0.233,0.184,0.472,0.345,0.688,0.505
					c0.215,0.167,0.439,0.265,0.63,0.386c0.199,0.113,0.354,0.22,0.556,0.306c0.186,0.088,0.349,0.165,0.483,0.228
					c0.268,0.126,0.42,0.199,0.42,0.199c0.501,0.237,0.716,0.836,0.479,1.337c-0.237,0.501-0.836,0.716-1.337,0.479
					C32.793,146.127,32.736,146.092,32.688,146.058z"/>
			</g>
			<g>
				<path style="fill:#FF6600;" d="M37.426,146.446c0,0-0.157,0.024-0.433,0.066c-0.287,0.035-0.635,0.121-1.198,0.143
					c-0.539,0.057-1.145,0.036-1.781-0.007c-0.317-0.049-0.644-0.1-0.977-0.151c-0.326-0.09-0.657-0.164-0.977-0.273
					c-0.315-0.128-0.637-0.223-0.928-0.385c-0.299-0.139-0.58-0.298-0.839-0.471c-0.524-0.333-0.964-0.705-1.306-1.053
					c-0.692-0.69-0.997-1.257-0.997-1.257s0.414,0.497,1.197,1.017c0.386,0.263,0.864,0.526,1.398,0.732
					c0.264,0.11,0.544,0.201,0.833,0.271c0.281,0.093,0.586,0.117,0.876,0.175c0.295,0.039,0.595,0.044,0.882,0.067
					c0.29-0.013,0.575-0.025,0.851-0.037c0.553-0.075,1.054-0.158,1.451-0.284c0.202-0.052,0.381-0.093,0.573-0.17
					c0.182-0.066,0.341-0.124,0.472-0.171c0.262-0.095,0.412-0.149,0.412-0.149c0.522-0.189,1.098,0.081,1.287,0.603
					c0.189,0.522-0.081,1.098-0.603,1.287C37.558,146.419,37.488,146.436,37.426,146.446z"/>
			</g>
			<g>
				<path style="fill:#FF6600;" d="M36.161,129.379c0,0,0.006-0.171,0.016-0.47c0-0.286,0.05-0.758,0.014-1.205
					c-0.009-0.236-0.019-0.492-0.029-0.763c-0.034-0.276-0.07-0.567-0.107-0.868c-0.034-0.304-0.119-0.604-0.179-0.92
					c-0.06-0.317-0.177-0.618-0.265-0.935c-0.212-0.616-0.477-1.221-0.797-1.751c-0.303-0.544-0.675-0.994-1.005-1.375
					c-0.682-0.746-1.285-1.092-1.285-1.092s0.656,0.227,1.495,0.861c0.407,0.325,0.884,0.724,1.307,1.235
					c0.441,0.498,0.844,1.089,1.197,1.713c0.157,0.319,0.346,0.632,0.475,0.96c0.128,0.327,0.283,0.647,0.382,0.968
					c0.102,0.323,0.2,0.635,0.294,0.931c0.07,0.31,0.136,0.603,0.197,0.873c0.138,0.563,0.16,0.949,0.217,1.256
					c0.044,0.296,0.07,0.465,0.07,0.465c0.083,0.548-0.294,1.06-0.842,1.143c-0.548,0.083-1.06-0.294-1.143-0.842
					C36.162,129.504,36.159,129.438,36.161,129.379z"/>
			</g>
			<polyline style="fill:#FFFFFF;" points="30,123 30,133.462 36.356,128.61 			"/>
		</g>
		<polyline style="stroke:#FF6600;stroke-width:5;stroke-miterlimit:10;" points="77.5,100 77.5,69.005 108.542,84.503 		"/>
		<polyline style="stroke:#FF6600;stroke-width:5;stroke-miterlimit:10;" points="152.825,77.574 137.989,53.834 122.051,80.301 		
			"/>
		<path d="M133.434,123.605L133.434,123.605c-1.983,0-3.605-1.622-3.605-3.605l0,0c0-1.983,1.622-3.605,3.605-3.605l0,0
			c1.983,0,3.605,1.622,3.605,3.605l0,0C137.039,121.983,135.417,123.605,133.434,123.605z"/>
		<path d="M157.903,116.395L157.903,116.395c-1.983,0-3.605-1.622-3.605-3.605v0c0-1.983,1.622-3.605,3.605-3.605h0
			c1.983,0,3.605,1.622,3.605,3.605v0C161.508,114.772,159.886,116.395,157.903,116.395z"/>
		<path d="M146.052,136.623L146.052,136.623c-2.356,0-4.283-1.927-4.283-4.283v0c0-2.356,1.927-4.283,4.283-4.283l0,0
			c2.356,0,4.283,1.927,4.283,4.283v0C150.334,134.695,148.407,136.623,146.052,136.623z"/>
		
			<ellipse transform="matrix(0.9982 -0.0594 0.0594 0.9982 -9.121 8.8443)" style="fill:#990000;" cx="144.274" cy="157.913" rx="12.167" ry="5.526"/>
		<polyline style="fill:#FFFFFF;" points="136.226,154.147 137.75,155.5 138.283,153.38 		"/>
		<polyline style="fill:#FFFFFF;" points="147.467,152.422 148.458,154.44 149.819,152.727 		"/>
	</g>
	<g>
		<ellipse style="opacity:0.7;fill:#999999;" cx="287.7" cy="184.5" rx="47.837" ry="19.5"/>
		<circle style="fill:#FFCC33;" cx="287.7" cy="134.101" r="55.8"/>
		<ellipse style="fill:#FFFFFF;" cx="266" cy="126.231" rx="15" ry="17.382"/>
		<ellipse style="fill:#FFFFFF;" cx="290.5" cy="127.6" rx="15" ry="17.382"/>
		<circle style="fill:#990000;" cx="278.625" cy="165.125" r="6.625"/>
		<circle cx="261.33" cy="125.67" r="4.67"/>
		<circle cx="285.25" cy="127.6" r="4.67"/>
	</g>
</g>
<g id="&#x421;&#x43B;&#x43E;&#x439;_3" style="display:none;">
</g>
</svg>
